<svg width="75" height="75" viewBox="0 0 75 75" fill="none" xmlns="http://www.w3.org/2000/svg">
<path d="M31.25 53.125H31.2553V53.1303H31.25V53.125Z" stroke="#84A6C2" stroke-width="6.25" stroke-linecap="round" stroke-linejoin="round"/>
<path d="M46.875 46.875H46.8803V46.8803H46.875V46.875Z" stroke="#84A6C2" stroke-width="6.25" stroke-linecap="round" stroke-linejoin="round"/>
<path d="M34.375 37.5H34.3803V37.5053H34.375V37.5Z" stroke="#84A6C2" stroke-width="6.25" stroke-linecap="round" stroke-linejoin="round"/>
<path d="M50 31.25H50.0053V31.2553H50V31.25Z" stroke="#84A6C2" stroke-width="6.25" stroke-linecap="round" stroke-linejoin="round"/>
<path d="M9.375 21.875H9.38033V21.8803H9.375V21.875Z" stroke="#84A6C2" stroke-width="6.25" stroke-linecap="round" stroke-linejoin="round"/>
<path d="M25 9.375H25.0053V9.38033H25V9.375Z" stroke="#84A6C2" stroke-width="6.25" stroke-linecap="round" stroke-linejoin="round"/>
<path d="M12.5 9.375H12.5053V9.38033H12.5V9.375Z" stroke="#84A6C2" stroke-width="6.25" stroke-linecap="round" stroke-linejoin="round"/>
<path d="M19.6359 37.4934C22.9773 34.1648 24.0408 29.4263 22.8264 25.2002C27.0687 26.4099 31.8254 25.3505 35.1668 22.0219C38.6017 18.6001 39.6294 13.6884 38.25 9.375C45.1863 9.58531 52.0596 12.3274 57.3538 17.6014C68.3821 28.5875 68.3821 46.3994 57.3538 57.3855C46.3256 68.3715 28.4454 68.3715 17.4172 57.3855C12.8206 52.8064 10.1398 47.0416 9.375 41.0794C13.0317 41.4819 16.8321 40.2865 19.6359 37.4934Z" stroke="#84A6C2" stroke-width="6.25" stroke-linecap="round" stroke-linejoin="round"/>
</svg>
