<svg width="75" height="75" viewBox="0 0 75 75" fill="none" xmlns="http://www.w3.org/2000/svg">
<path d="M15.625 43.75V40.625C14.7191 40.625 13.8578 41.0181 13.2642 41.7025C12.6707 42.3869 12.4033 43.2951 12.5314 44.1919L15.625 43.75ZM59.375 43.75L62.4686 44.1919C62.5967 43.2951 62.3293 42.3869 61.7358 41.7025C61.1422 41.0181 60.2809 40.625 59.375 40.625V43.75ZM56.6333 62.9419L53.5397 62.5L53.5397 62.5L56.6333 62.9419ZM18.3667 62.9419L21.4603 62.5L18.3667 62.9419ZM15.625 46.875H59.375V40.625H15.625V46.875ZM56.2814 43.3081L53.5397 62.5L59.7269 63.3839L62.4686 44.1919L56.2814 43.3081ZM53.5397 62.5H21.4603V68.75H53.5397V62.5ZM21.4603 62.5L18.7186 43.3081L12.5314 44.1919L15.2731 63.3839L21.4603 62.5ZM21.4603 62.5H21.4603L15.2731 63.3839C15.713 66.4629 18.35 68.75 21.4603 68.75V62.5ZM53.5397 62.5L53.5397 62.5V68.75C56.65 68.75 59.287 66.4629 59.7269 63.3839L53.5397 62.5Z" fill="#FDAD6D"/>
<path d="M43.75 65.625L43.75 43.75" stroke="#FDAD6D" stroke-width="6.25" stroke-linecap="round" stroke-linejoin="round"/>
<path d="M31.25 65.625L31.25 43.75" stroke="#FDAD6D" stroke-width="6.25" stroke-linecap="round" stroke-linejoin="round"/>
<path d="M15.625 43.75C11.6009 42.7839 9.375 39.148 9.375 35.1562C9.375 32.0433 11.1806 29.3169 13.8842 27.8091C14.9093 27.2375 15.625 26.2301 15.625 25.1302C15.625 16.4288 23.3201 9.375 32.8125 9.375C36.3498 9.375 39.6375 10.3545 42.3704 12.0338C43.5326 12.7479 45.0432 12.8218 46.3938 12.4871C47.0452 12.3257 47.7304 12.2396 48.4375 12.2396C52.7522 12.2396 56.25 15.4459 56.25 19.401C56.25 20.3685 56.8653 21.3121 57.8426 21.6775C62.4076 23.3841 65.625 27.4935 65.625 32.2917C65.625 36.7612 63.4471 41.8611 59.375 43.75H15.625Z" stroke="#FDAD6D" stroke-width="6.25" stroke-linecap="round" stroke-linejoin="round"/>
</svg>
