<svg width="21" height="20" viewBox="0 0 21 20" fill="none" xmlns="http://www.w3.org/2000/svg">
<path fill-rule="evenodd" clip-rule="evenodd" d="M0.5 10C0.5 4.47715 4.97715 0 10.5 0C16.0228 0 20.5 4.47715 20.5 10C20.5 15.5228 16.0228 20 10.5 20C4.97715 20 0.5 15.5228 0.5 10ZM10.4856 7.34222C11.2981 7.34222 11.8462 7.6937 12.1587 7.98741L13.3799 6.79333C12.6299 6.09519 11.6539 5.66667 10.4856 5.66667C8.7932 5.66667 7.33161 6.63926 6.62004 8.05481C6.32677 8.64222 6.15849 9.30185 6.15849 10C6.15849 10.6981 6.32677 11.3578 6.62004 11.9452L8.02372 10.8572L6.62485 11.9452C7.33642 13.3607 8.7932 14.3333 10.4856 14.3333C11.6539 14.3333 12.6347 13.9481 13.3511 13.2837C14.1684 12.5278 14.6396 11.4156 14.6396 10.0963C14.6396 9.74 14.6107 9.48 14.5482 9.21037H10.4856V10.8185H12.8703C12.8222 11.2181 12.5626 11.82 11.9856 12.2244C11.6202 12.4796 11.1298 12.6578 10.4856 12.6578C9.3413 12.6578 8.37011 11.9019 8.02394 10.857C7.93259 10.5874 7.87971 10.2985 7.87971 10C7.87971 9.70148 7.93259 9.41259 8.01913 9.14296C8.37011 8.09815 9.3413 7.34222 10.4856 7.34222Z" fill="#43607C"/>
</svg>
