<svg width="138" height="42" viewBox="0 0 138 42" fill="none" xmlns="http://www.w3.org/2000/svg">
<path d="M4.9 12.875V31.425L7.7 32.475V33H1.05V32.475L3.85 31.425V9.55L1.75 9.025V8.5H6.125C7.33833 8.5 8.295 8.75667 8.995 9.27C9.71833 9.76 10.3367 10.495 10.85 11.475L18.48 26.07L24.325 11.475C24.7217 10.4483 25.2583 9.70167 25.935 9.235C26.6117 8.745 27.65 8.5 29.05 8.5H32.725V9.025L30.625 9.55V31.95L32.725 32.475V33H22.75V32.475L24.85 31.95V12.875L16.625 33.35H15.575L4.9 12.875ZM39.7373 40.525C38.6873 40.525 37.8706 40.245 37.2873 39.685C36.704 39.125 36.4123 38.355 36.4123 37.375C36.4123 36.4883 36.6456 35.8 37.1123 35.31C37.6023 34.82 38.244 34.575 39.0373 34.575C39.224 34.575 39.4106 34.5867 39.5973 34.61C39.784 34.6567 39.9123 34.68 39.9823 34.68L40.4373 34.75V39.475C41.114 39.3583 41.709 38.985 42.2223 38.355C42.7356 37.725 43.3073 36.64 43.9373 35.1L44.6373 33.35L35.5373 16.55L33.7873 16.025V15.5H38.1623C39.3756 15.5 40.3323 15.7567 41.0323 16.27C41.7556 16.76 42.374 17.495 42.8873 18.475L47.2623 26.56L50.9373 17.075L48.3123 16.025V15.5H54.7873V16.025L51.9873 17.075L44.9873 35.1C44.2406 37.0133 43.4473 38.39 42.6073 39.23C41.7673 40.0933 40.8106 40.525 39.7373 40.525ZM67.5473 33.525C63.8139 33.525 60.8973 32.4167 58.7973 30.2C56.6973 27.9833 55.6473 24.8333 55.6473 20.75C55.6473 18.0667 56.1023 15.7683 57.0123 13.855C57.9456 11.9183 59.2406 10.46 60.8973 9.48C62.5773 8.47667 64.5139 7.975 66.7073 7.975C68.0373 7.975 69.3789 8.36 70.7323 9.13C71.2456 9.41 71.7589 9.78333 72.2723 10.25C72.6689 9.64333 73.0773 9.165 73.4973 8.815C73.9173 8.51166 74.1506 8.34833 74.1973 8.325H75.0723V14.975H73.6723C73.3689 13.855 72.9139 12.84 72.3073 11.93C71.7473 11.0433 71.0473 10.3083 70.2073 9.725C69.3906 9.14167 68.4456 8.85 67.3723 8.85C65.7623 8.85 64.4206 9.78333 63.3473 11.65C62.2973 13.5167 61.7723 16.55 61.7723 20.75C61.7723 25.02 62.3439 28.0767 63.4873 29.92C64.6539 31.74 66.2406 32.65 68.2473 32.65C69.3439 32.65 70.3823 32.3467 71.3623 31.74C72.3656 31.11 73.1706 30.2817 73.7773 29.255C74.4073 28.2283 74.7223 27.1433 74.7223 26H75.5973C75.5973 27.33 75.2356 28.5783 74.5123 29.745C73.8123 30.8883 72.8439 31.81 71.6073 32.51C70.3939 33.1867 69.0406 33.525 67.5473 33.525ZM85.0609 33.525C82.9843 33.525 81.3859 33.0817 80.2659 32.195C79.1459 31.3083 78.5859 30.1767 78.5859 28.8C78.5859 27.89 78.7843 26.9917 79.1809 26.105C79.3443 25.685 79.5543 25.3 79.8109 24.95C80.7676 24.7167 81.8059 24.5067 82.9259 24.32C85.4459 23.9 87.6743 23.6433 89.6109 23.55V22.5C89.6109 19.91 89.2959 18.125 88.6659 17.145C88.0359 16.165 87.0676 15.675 85.7609 15.675C85.2709 15.675 84.8509 15.7333 84.5009 15.85L84.0109 16.025V21.275L83.5559 21.38C83.1826 21.4267 82.8676 21.45 82.6109 21.45C81.8176 21.45 81.1759 21.2167 80.6859 20.75C80.2193 20.26 79.9859 19.6183 79.9859 18.825C79.9859 17.7517 80.5226 16.8417 81.5959 16.095C82.6926 15.3483 84.3143 14.975 86.4609 14.975C88.2809 14.975 89.8443 15.3017 91.1509 15.955C92.4809 16.585 93.4843 17.4717 94.1609 18.615C94.8609 19.735 95.2109 21.03 95.2109 22.5V31.95L97.3109 32.475V33H94.1609C92.7609 33 91.6759 32.5683 90.9059 31.705C90.5793 31.355 90.3226 30.9117 90.1359 30.375C89.8093 30.9583 89.4243 31.4833 88.9809 31.95C87.9309 33 86.6243 33.525 85.0609 33.525ZM86.4609 32.3C87.3243 32.3 88.1059 31.8333 88.8059 30.9C89.0626 30.55 89.3309 30.0833 89.6109 29.5V24.425C88.5376 24.425 87.5109 24.4833 86.5309 24.6C85.8076 24.6933 85.3176 24.7517 85.0609 24.775C84.9443 25.0317 84.8276 25.3817 84.7109 25.825C84.4776 26.7117 84.3609 27.5867 84.3609 28.45C84.3609 29.7567 84.5593 30.725 84.9559 31.355C85.3526 31.985 85.8543 32.3 86.4609 32.3ZM99.4273 32.475L101.527 31.95V9.55L99.4273 9.025V8.5H103.977C106.077 8.5 107.127 9.55 107.127 11.65V23.9L113.602 17.075L110.977 16.025V15.5H117.627V16.025L114.827 17.075L110.802 21.275L117.627 31.95L119.377 32.475V33H114.827C113.707 33 112.797 32.755 112.097 32.265C111.397 31.775 110.732 31.0283 110.102 30.025L107.127 25.3V31.95L109.227 32.475V33H99.4273V32.475ZM129.18 33.525C126.193 33.525 123.872 32.7083 122.215 31.075C120.558 29.4183 119.73 27.1433 119.73 24.25C119.73 22.36 120.092 20.715 120.815 19.315C121.538 17.915 122.542 16.8417 123.825 16.095C125.132 15.3483 126.625 14.975 128.305 14.975C129.985 14.975 131.455 15.29 132.715 15.92C133.998 16.55 134.978 17.4017 135.655 18.475C136.355 19.525 136.705 20.6917 136.705 21.975C136.705 22.5583 136.647 23.06 136.53 23.48L136.355 24.075C135.352 24.285 134.267 24.46 133.1 24.6C130.65 24.95 128.177 25.125 125.68 25.125C125.68 27.8317 126.053 29.7683 126.8 30.935C127.547 32.0783 128.573 32.65 129.88 32.65C130.79 32.65 131.63 32.44 132.4 32.02C133.193 31.5767 133.812 31.005 134.255 30.305C134.722 29.5817 134.955 28.8467 134.955 28.1H135.83C135.83 29.0333 135.55 29.92 134.99 30.76C134.43 31.6 133.648 32.2767 132.645 32.79C131.642 33.28 130.487 33.525 129.18 33.525ZM125.68 24.25C127.173 24.25 128.387 24.1917 129.32 24.075C129.717 24.0517 130.137 23.9933 130.58 23.9C130.603 23.7833 130.662 23.5267 130.755 23.13C130.872 22.5467 130.93 21.9283 130.93 21.275C130.93 19.3383 130.673 17.9267 130.16 17.04C129.647 16.13 129.028 15.675 128.305 15.675C126.555 15.675 125.68 18.5333 125.68 24.25Z" fill="#011936"/>
</svg>
