<svg width="136" height="34" viewBox="0 0 136 34" fill="none" xmlns="http://www.w3.org/2000/svg">
<path d="M3.9 5.875V24.425L6.7 25.475V26H0.05V25.475L2.85 24.425V2.55L0.75 2.025V1.5H5.125C6.33833 1.5 7.295 1.75667 7.995 2.27C8.71833 2.76 9.33667 3.495 9.85 4.475L17.48 19.07L23.325 4.475C23.7217 3.44833 24.2583 2.70167 24.935 2.235C25.6117 1.745 26.65 1.5 28.05 1.5H31.725V2.025L29.625 2.55V24.95L31.725 25.475V26H21.75V25.475L23.85 24.95V5.875L15.625 26.35H14.575L3.9 5.875ZM38.7373 33.525C37.6873 33.525 36.8706 33.245 36.2873 32.685C35.704 32.125 35.4123 31.355 35.4123 30.375C35.4123 29.4883 35.6456 28.8 36.1123 28.31C36.6023 27.82 37.244 27.575 38.0373 27.575C38.224 27.575 38.4106 27.5867 38.5973 27.61C38.784 27.6567 38.9123 27.68 38.9823 27.68L39.4373 27.75V32.475C40.114 32.3583 40.709 31.985 41.2223 31.355C41.7356 30.725 42.3073 29.64 42.9373 28.1L43.6373 26.35L34.5373 9.55L32.7873 9.025V8.5H37.1623C38.3756 8.5 39.3323 8.75667 40.0323 9.27C40.7556 9.76 41.374 10.495 41.8873 11.475L46.2623 19.56L49.9373 10.075L47.3123 9.025V8.5H53.7873V9.025L50.9873 10.075L43.9873 28.1C43.2406 30.0133 42.4473 31.39 41.6073 32.23C40.7673 33.0933 39.8106 33.525 38.7373 33.525ZM66.5473 26.525C62.8139 26.525 59.8973 25.4167 57.7973 23.2C55.6973 20.9833 54.6473 17.8333 54.6473 13.75C54.6473 11.0667 55.1023 8.76833 56.0123 6.855C56.9456 4.91833 58.2406 3.46 59.8973 2.48C61.5773 1.47667 63.5139 0.974999 65.7073 0.974999C67.0373 0.974999 68.3789 1.36 69.7323 2.13C70.2456 2.41 70.7589 2.78333 71.2723 3.25C71.6689 2.64333 72.0773 2.165 72.4973 1.815C72.9173 1.51166 73.1506 1.34833 73.1973 1.325H74.0723V7.975H72.6723C72.3689 6.855 71.9139 5.84 71.3073 4.93C70.7473 4.04333 70.0473 3.30833 69.2073 2.725C68.3906 2.14167 67.4456 1.85 66.3723 1.85C64.7623 1.85 63.4206 2.78333 62.3473 4.65C61.2973 6.51667 60.7723 9.55 60.7723 13.75C60.7723 18.02 61.3439 21.0767 62.4873 22.92C63.6539 24.74 65.2406 25.65 67.2473 25.65C68.3439 25.65 69.3823 25.3467 70.3623 24.74C71.3656 24.11 72.1706 23.2817 72.7773 22.255C73.4073 21.2283 73.7223 20.1433 73.7223 19H74.5973C74.5973 20.33 74.2356 21.5783 73.5123 22.745C72.8123 23.8883 71.8439 24.81 70.6073 25.51C69.3939 26.1867 68.0406 26.525 66.5473 26.525ZM84.0609 26.525C81.9843 26.525 80.3859 26.0817 79.2659 25.195C78.1459 24.3083 77.5859 23.1767 77.5859 21.8C77.5859 20.89 77.7843 19.9917 78.1809 19.105C78.3443 18.685 78.5543 18.3 78.8109 17.95C79.7676 17.7167 80.8059 17.5067 81.9259 17.32C84.4459 16.9 86.6743 16.6433 88.6109 16.55V15.5C88.6109 12.91 88.2959 11.125 87.6659 10.145C87.0359 9.165 86.0676 8.675 84.7609 8.675C84.2709 8.675 83.8509 8.73333 83.5009 8.85L83.0109 9.025V14.275L82.5559 14.38C82.1826 14.4267 81.8676 14.45 81.6109 14.45C80.8176 14.45 80.1759 14.2167 79.6859 13.75C79.2193 13.26 78.9859 12.6183 78.9859 11.825C78.9859 10.7517 79.5226 9.84167 80.5959 9.095C81.6926 8.34833 83.3143 7.975 85.4609 7.975C87.2809 7.975 88.8443 8.30167 90.1509 8.955C91.4809 9.585 92.4843 10.4717 93.1609 11.615C93.8609 12.735 94.2109 14.03 94.2109 15.5V24.95L96.3109 25.475V26H93.1609C91.7609 26 90.6759 25.5683 89.9059 24.705C89.5793 24.355 89.3226 23.9117 89.1359 23.375C88.8093 23.9583 88.4243 24.4833 87.9809 24.95C86.9309 26 85.6243 26.525 84.0609 26.525ZM85.4609 25.3C86.3243 25.3 87.1059 24.8333 87.8059 23.9C88.0626 23.55 88.3309 23.0833 88.6109 22.5V17.425C87.5376 17.425 86.5109 17.4833 85.5309 17.6C84.8076 17.6933 84.3176 17.7517 84.0609 17.775C83.9443 18.0317 83.8276 18.3817 83.7109 18.825C83.4776 19.7117 83.3609 20.5867 83.3609 21.45C83.3609 22.7567 83.5593 23.725 83.9559 24.355C84.3526 24.985 84.8543 25.3 85.4609 25.3ZM98.4273 25.475L100.527 24.95V2.55L98.4273 2.025V1.5H102.977C105.077 1.5 106.127 2.55 106.127 4.65V16.9L112.602 10.075L109.977 9.025V8.5H116.627V9.025L113.827 10.075L109.802 14.275L116.627 24.95L118.377 25.475V26H113.827C112.707 26 111.797 25.755 111.097 25.265C110.397 24.775 109.732 24.0283 109.102 23.025L106.127 18.3V24.95L108.227 25.475V26H98.4273V25.475ZM128.18 26.525C125.193 26.525 122.872 25.7083 121.215 24.075C119.558 22.4183 118.73 20.1433 118.73 17.25C118.73 15.36 119.092 13.715 119.815 12.315C120.538 10.915 121.542 9.84167 122.825 9.095C124.132 8.34833 125.625 7.975 127.305 7.975C128.985 7.975 130.455 8.29 131.715 8.92C132.998 9.55 133.978 10.4017 134.655 11.475C135.355 12.525 135.705 13.6917 135.705 14.975C135.705 15.5583 135.647 16.06 135.53 16.48L135.355 17.075C134.352 17.285 133.267 17.46 132.1 17.6C129.65 17.95 127.177 18.125 124.68 18.125C124.68 20.8317 125.053 22.7683 125.8 23.935C126.547 25.0783 127.573 25.65 128.88 25.65C129.79 25.65 130.63 25.44 131.4 25.02C132.193 24.5767 132.812 24.005 133.255 23.305C133.722 22.5817 133.955 21.8467 133.955 21.1H134.83C134.83 22.0333 134.55 22.92 133.99 23.76C133.43 24.6 132.648 25.2767 131.645 25.79C130.642 26.28 129.487 26.525 128.18 26.525ZM124.68 17.25C126.173 17.25 127.387 17.1917 128.32 17.075C128.717 17.0517 129.137 16.9933 129.58 16.9C129.603 16.7833 129.662 16.5267 129.755 16.13C129.872 15.5467 129.93 14.9283 129.93 14.275C129.93 12.3383 129.673 10.9267 129.16 10.04C128.647 9.13 128.028 8.675 127.305 8.675C125.555 8.675 124.68 11.5333 124.68 17.25Z" fill="white"/>
</svg>
