<svg width="25" height="26" viewBox="0 0 25 26" fill="none" xmlns="http://www.w3.org/2000/svg">
<g clip-path="url(#clip0_18038_1691)">
<path d="M14.5833 13C14.5833 11.8542 13.6458 10.9167 12.5 10.9167C11.3542 10.9167 10.4167 11.8542 10.4167 13C10.4167 14.1458 11.3542 15.0833 12.5 15.0833C13.6458 15.0833 14.5833 14.1458 14.5833 13ZM12.5 3.625C7.32292 3.625 3.125 7.82292 3.125 13H0L4.16667 17.1667L8.33333 13H5.20833C5.20833 8.96875 8.46875 5.70833 12.5 5.70833C16.5312 5.70833 19.7917 8.96875 19.7917 13C19.7917 17.0312 16.5312 20.2917 12.5 20.2917C10.9271 20.2917 9.46875 19.7812 8.27083 18.9375L6.79167 20.4375C8.375 21.6458 10.3542 22.375 12.5 22.375C17.6771 22.375 21.875 18.1771 21.875 13C21.875 7.82292 17.6771 3.625 12.5 3.625Z" fill="#43607C"/>
</g>
<defs>
<clipPath id="clip0_18038_1691">
<rect width="25" height="25" fill="white" transform="translate(0 0.5)"/>
</clipPath>
</defs>
</svg>
