<svg width="19" height="19" viewBox="0 0 19 19" fill="none" xmlns="http://www.w3.org/2000/svg">
<path d="M13.6458 11.5833H12.8229L12.5312 11.3021C13.5521 10.1146 14.1667 8.57292 14.1667 6.89583C14.1667 3.15625 11.1354 0.125 7.39583 0.125C3.65625 0.125 0.625 3.15625 0.625 6.89583C0.625 10.6354 3.65625 13.6667 7.39583 13.6667C9.07292 13.6667 10.6146 13.0521 11.8021 12.0312L12.0833 12.3229V13.1458L17.2917 18.3437L18.8437 16.7917L13.6458 11.5833V11.5833ZM7.39583 11.5833C4.80208 11.5833 2.70833 9.48958 2.70833 6.89583C2.70833 4.30208 4.80208 2.20833 7.39583 2.20833C9.98958 2.20833 12.0833 4.30208 12.0833 6.89583C12.0833 9.48958 9.98958 11.5833 7.39583 11.5833Z" fill="#5E2D07"/>
</svg>
