<svg width="22" height="22" viewBox="0 0 22 22" fill="none" xmlns="http://www.w3.org/2000/svg">
<path d="M10.9999 0.58313C5.24992 0.58313 0.583252 5.2498 0.583252 10.9998C0.583252 16.7498 5.24992 21.4165 10.9999 21.4165C16.7499 21.4165 21.4166 16.7498 21.4166 10.9998C21.4166 5.2498 16.7499 0.58313 10.9999 0.58313ZM10.9999 3.70813C12.7291 3.70813 14.1249 5.10396 14.1249 6.83313C14.1249 8.5623 12.7291 9.95813 10.9999 9.95813C9.27075 9.95813 7.87492 8.5623 7.87492 6.83313C7.87492 5.10396 9.27075 3.70813 10.9999 3.70813ZM10.9999 18.4998C8.39575 18.4998 6.09367 17.1665 4.74992 15.1456C4.78117 13.0727 8.91659 11.9373 10.9999 11.9373C13.0728 11.9373 17.2187 13.0727 17.2499 15.1456C15.9062 17.1665 13.6041 18.4998 10.9999 18.4998Z" fill="#5E2D07"/>
</svg>
