<svg width="40" height="40" viewBox="0 0 40 40" fill="none" xmlns="http://www.w3.org/2000/svg">
<path fill-rule="evenodd" clip-rule="evenodd" d="M20 0C8.9543 0 0 8.9543 0 20C0 31.0457 8.9543 40 20 40C31.0457 40 40 31.0457 40 20C40 8.9543 31.0457 0 20 0ZM15.6026 9.39843C16.7404 9.34665 17.104 9.33398 20.0009 9.33398H19.9976C22.8954 9.33398 23.2576 9.34665 24.3954 9.39843C25.531 9.45043 26.3065 9.63021 26.9865 9.89399C27.6888 10.1662 28.2821 10.5307 28.8755 11.124C29.4688 11.7169 29.8332 12.312 30.1066 13.0136C30.3688 13.6918 30.5488 14.4669 30.6021 15.6025C30.6532 16.7403 30.6666 17.1038 30.6666 20.0008C30.6666 22.8977 30.6532 23.2603 30.6021 24.3981C30.5488 25.5333 30.3688 26.3086 30.1066 26.9871C29.8332 27.6884 29.4688 28.2835 28.8755 28.8764C28.2828 29.4697 27.6886 29.8351 26.9872 30.1075C26.3085 30.3713 25.5325 30.5511 24.397 30.6031C23.2592 30.6549 22.8967 30.6675 19.9996 30.6675C17.1029 30.6675 16.7396 30.6549 15.6018 30.6031C14.4664 30.5511 13.6911 30.3713 13.0124 30.1075C12.3113 29.8351 11.7162 29.4697 11.1235 28.8764C10.5304 28.2835 10.1659 27.6884 9.89326 26.9868C9.6297 26.3086 9.44992 25.5335 9.3977 24.3979C9.34614 23.2601 9.33325 22.8977 9.33325 20.0008C9.33325 17.1038 9.34659 16.7401 9.39748 15.6023C9.44859 14.4671 9.62859 13.6918 9.89304 13.0134C10.1664 12.312 10.5308 11.7169 11.1242 11.124C11.7171 10.5309 12.3122 10.1664 13.0137 9.89399C13.692 9.63021 14.4671 9.45043 15.6026 9.39843Z" fill="white"/>
<path fill-rule="evenodd" clip-rule="evenodd" d="M19.044 11.2546C19.2298 11.2543 19.4297 11.2544 19.6454 11.2545L20.0009 11.2546C22.8489 11.2546 23.1865 11.2648 24.3111 11.316C25.3512 11.3635 25.9156 11.5373 26.2916 11.6833C26.7894 11.8766 27.1443 12.1077 27.5174 12.4811C27.8907 12.8544 28.1219 13.21 28.3156 13.7078C28.4616 14.0833 28.6356 14.6478 28.683 15.6878C28.7341 16.8122 28.7452 17.15 28.7452 19.9967C28.7452 22.8434 28.7341 23.1812 28.683 24.3056C28.6354 25.3457 28.4616 25.9101 28.3156 26.2857C28.1223 26.7834 27.8907 27.1379 27.5174 27.511C27.1441 27.8843 26.7896 28.1155 26.2916 28.3088C25.9161 28.4555 25.3512 28.6288 24.3111 28.6764C23.1867 28.7275 22.8489 28.7386 20.0009 28.7386C17.1526 28.7386 16.8151 28.7275 15.6906 28.6764C14.6506 28.6284 14.0862 28.4546 13.7099 28.3086C13.2121 28.1152 12.8566 27.8841 12.4832 27.5108C12.1099 27.1375 11.8788 26.7828 11.685 26.2848C11.539 25.9092 11.365 25.3448 11.3177 24.3048C11.2666 23.1803 11.2563 22.8425 11.2563 19.994C11.2563 17.1456 11.2666 16.8096 11.3177 15.6851C11.3652 14.6451 11.539 14.0806 11.685 13.7046C11.8784 13.2069 12.1099 12.8513 12.4832 12.478C12.8566 12.1046 13.2121 11.8735 13.7099 11.6797C14.0859 11.5331 14.6506 11.3597 15.6906 11.312C16.6746 11.2675 17.056 11.2542 19.044 11.252V11.2546ZM25.6947 13.0257C24.988 13.0257 24.4147 13.5984 24.4147 14.3053C24.4147 15.012 24.988 15.5853 25.6947 15.5853C26.4014 15.5853 26.9747 15.012 26.9747 14.3053C26.9747 13.5986 26.4014 13.0253 25.6947 13.0253V13.0257ZM14.5229 19.9993C14.5229 16.9742 16.9755 14.5216 20.0006 14.5215C23.0257 14.5215 25.4777 16.9742 25.4777 19.9993C25.4777 23.0245 23.0259 25.476 20.0008 25.476C16.9756 25.476 14.5229 23.0245 14.5229 19.9993Z" fill="white"/>
<path d="M20.0009 16.4453C21.9645 16.4453 23.5565 18.0371 23.5565 20.0009C23.5565 21.9645 21.9645 23.5565 20.0009 23.5565C18.0371 23.5565 16.4453 21.9645 16.4453 20.0009C16.4453 18.0371 18.0371 16.4453 20.0009 16.4453V16.4453Z" fill="white"/>
</svg>
