<svg width="40" height="40" viewBox="0 0 40 40" fill="none" xmlns="http://www.w3.org/2000/svg">
<path fill-rule="evenodd" clip-rule="evenodd" d="M20 0C8.9543 0 0 8.9543 0 20C0 31.0457 8.9543 40 20 40C31.0457 40 40 31.0457 40 20C40 8.9543 31.0457 0 20 0ZM28.3346 13.1238C29.2525 13.3757 29.9754 14.1179 30.2208 15.0604C30.6666 16.7685 30.6666 20.3327 30.6666 20.3327C30.6666 20.3327 30.6666 23.8967 30.2208 25.605C29.9754 26.5475 29.2525 27.2897 28.3346 27.5417C26.6711 27.9993 19.9999 27.9993 19.9999 27.9993C19.9999 27.9993 13.3288 27.9993 11.6651 27.5417C10.7472 27.2897 10.0243 26.5475 9.77895 25.605C9.33325 23.8967 9.33325 20.3327 9.33325 20.3327C9.33325 20.3327 9.33325 16.7685 9.77895 15.0604C10.0243 14.1179 10.7472 13.3757 11.6651 13.1238C13.3288 12.666 19.9999 12.666 19.9999 12.666C19.9999 12.666 26.6711 12.666 28.3346 13.1238Z" fill="white"/>
<path d="M18 24.0007V17.334L23.3333 20.6674L18 24.0007Z" fill="white"/>
</svg>
